<?xml version="1.0" standalone="no"?><!DOCTYPE svg PUBLIC "-//W3C//DTD SVG 1.1//EN" "http://www.w3.org/Graphics/SVG/1.1/DTD/svg11.dtd"><svg t="1483689679173" class="icon" style="" viewBox="0 0 1024 1024" version="1.1" xmlns="http://www.w3.org/2000/svg" p-id="1038" xmlns:xlink="http://www.w3.org/1999/xlink" width="128" height="128"><defs><style type="text/css"></style></defs><path d="M512 85.333333C276.053333 85.333333 85.333333 276.053333 85.333333 512s190.72 426.666667 426.666667 426.666667a426.666667 426.666667 0 0 0 426.666667-426.666667c0-235.946667-192-426.666667-426.666667-426.666667m0 768a341.333333 341.333333 0 0 1-341.333333-341.333333 341.333333 341.333333 0 0 1 341.333333-341.333333 341.333333 341.333333 0 0 1 341.333333 341.333333 341.333333 341.333333 0 0 1-341.333333 341.333333m178.346667-522.24l-45.226667 45.226667-45.226667-45.226667L554.666667 376.32l45.226666 45.226667L554.666667 466.773333 599.893333 512l45.226667-45.226667L690.346667 512l45.226666-45.226667-45.226666-45.226666 45.226666-45.226667-45.226666-45.226667M333.653333 512l45.226667-45.226667L424.106667 512 469.333333 466.773333 424.106667 421.546667 469.333333 376.32 424.106667 331.093333 378.88 376.32 333.653333 331.093333 288.426667 376.32l45.226666 45.226667-45.226666 45.226666L333.653333 512M512 597.333333c-99.413333 0-183.893333 62.293333-218.026667 149.333334h436.053334c-34.133333-87.04-118.613333-149.333333-218.026667-149.333334z" fill="#d81e06" p-id="1039"></path></svg>