<?xml version="1.0" standalone="no"?><!DOCTYPE svg PUBLIC "-//W3C//DTD SVG 1.1//EN" "http://www.w3.org/Graphics/SVG/1.1/DTD/svg11.dtd"><svg class="icon" width="30px" height="30.00px" viewBox="0 0 1024 1024" version="1.1" xmlns="http://www.w3.org/2000/svg"><path fill="#2c2c2c" d="M857.399296 233.644032l-0.509952 0c0-31.361024-0.239616-62.19776-1.353728-90.515456-29.530112 8.923136-55.760896 13.449216-86.484992 15.538176-112.683008 7.553024-189.857792-32.397312-260.6592-65.46432C429.318144 143.83104 284.12928 181.456896 164.483072 143.130624c0 106.196992 0 212.00896 0 316.116992 0 35.536896-2.69312 70.99392 0 105.351168 8.828928 108.29824 71.663616 188.073984 134.305792 247.30624 62.021632 58.64448 135.708672 102.260736 212.932608 139.788288 45.289472-21.639168 86.515712-47.345664 127.54944-73.224192 1.00352-3.442688 94.11584-79.663104 100.90496-86.499328 51.042304-51.073024 99.424256-116.34688 113.176576-201.887744 1.052672-6.629376 4.048896-20.381696 4.048896-20.381696L857.401344 233.644032zM700.24192 771.985408c-55.089152 54.0672-121.112576 96.4096-188.520448 131.9936-121.206784-63.678464-230.733824-139.022336-286.140416-268.404736-3.792896-2.646016-10.48576-36.907008-15.552512-43.266048-4.829184-123.486208-0.956416-265.18528-2.168832-395.986944 117.460992 18.501632 224.534528-13.514752 302.761984-54.308864 28.811264 16.285696 76.443648 33.46432 117.540864 44.38016 19.202048 5.052416 58.484736 13.592576 63.154176 13.273088 40.763392 2.502656 85.352448 3.66592 122.068992-3.346432 0 7.346176 0.014336 20.350976 0.17408 37.369856l0 326.889472c0 1.052672-0.159744 2.072576-0.17408 2.899968C807.313408 653.725696 749.930496 723.206144 700.24192 771.985408zM769.753088 332.781568c0-30.294016 0-59.82208 0-87.646208-105.14432 4.907008-188.520448-21.450752-259.497984-54.358016-71.041024 32.907264-154.44992 59.24864-259.559424 54.358016 1.482752 107.247616-2.965504 220.2624 2.246656 323.893248 3.362816 28.940288 3.618816 18.405376 7.745536 35.487744 44.683264 122.083328 143.45216 190.050304 250.652672 249.522176 52.922368-28.381184 107.43808-65.748992 154.130432-109.797376 45.17888-42.467328 88.428544-94.767104 100.93568-164.151296C772.558848 546.127872 769.753088 361.816064 769.753088 332.781568zM689.772544 513.55648l-157.7472 0 0 157.827072c0 12.126208-9.832448 21.958656-22.007808 21.958656-12.079104 0-21.958656-9.832448-21.958656-21.958656L488.05888 513.55648l-157.7472 0c-12.111872 0-21.927936-9.752576-21.927936-21.880832 0-12.158976 9.816064-21.958656 21.927936-21.958656l157.7472 0 0-157.796352c0-12.095488 9.879552-21.927936 21.958656-21.927936 12.17536 0 22.007808 9.832448 22.007808 21.927936l0 157.796352 157.7472 0c12.173312 0 21.94432 9.79968 21.94432 21.958656C711.716864 503.803904 701.945856 513.55648 689.772544 513.55648z" /></svg>