<?xml version="1.0" standalone="no"?><!DOCTYPE svg PUBLIC "-//W3C//DTD SVG 1.1//EN" "http://www.w3.org/Graphics/SVG/1.1/DTD/svg11.dtd"><svg t="1483688263621" class="icon" style="" viewBox="0 0 1024 1024" version="1.1" xmlns="http://www.w3.org/2000/svg" p-id="2522" xmlns:xlink="http://www.w3.org/1999/xlink" width="200" height="200"><defs><style type="text/css"></style></defs><path d="M941 314 83 314c-36.452 0-66 29.548-66 66.003L17 644c0 36.448 29.548 66 66 66l858 0c36.452 0 66-29.552 66-66L1007 380.003C1007 343.548 977.452 314 941 314zM344.228 639.489l-58.007 0-92.489-167.257 0 167.257-55.11 0L138.622 399.562l73.963 0 76.537 137.445L289.122 399.562l55.107 0L344.229 639.489zM555.151 445.323l-102.32 0 0 42.055 94.265 0 0 45.761-94.265 0 0 60.588 102.32 0 0 45.761L392.89 639.488 392.89 399.562l162.261 0L555.151 445.323zM844.706 639.489l-66.063 0-38.511-148.404L702.75 639.489l-66.066 0-60.746-239.927 62.518 0 33.033 160.971 40.283-160.971 59.779 0 38.191 160.971 34.802-160.971 60.911 0L844.706 639.489z" fill="#d81e06" p-id="2523"></path></svg>